<svg aria-hidden="true" style="position: absolute; width: 0; height: 0; overflow: hidden;" version="1.1" xmlns="http://www.w3.org/2000/svg" xmlns:xlink="http://www.w3.org/1999/xlink">
<defs>
<symbol id="icon-cil_arrow" viewBox="0 0 32 32">
<path d="M22.492 7.587l-1.413 1.413 6 6h-26.079v2h26.077l-6 6 1.415 1.413 8.413-8.413-8.413-8.413z"></path>
</symbol>
<symbol id="icon-arrow-left" viewBox="0 0 32 32">
<path d="M31.083 15h-26.078l6-6-1.414-1.414-8.414 8.414 8.414 8.414 1.414-1.414-6-6h26.078v-2z"></path>
</symbol>
<symbol id="icon-arrow-right" viewBox="0 0 32 32">
<path d="M22.492 7.586l-1.414 1.414 6 6h-26.078v2h26.078l-6 6 1.414 1.414 8.414-8.414-8.414-8.414z"></path>
<symbol id="icon-left" viewBox="0 0 55 32">
<path d="M53.481 14.222h-46.359l10.667-10.667-2.517-2.514-14.956 14.958 14.958 14.958 2.516-2.514-10.667-10.667h46.359v-3.556z"></path>
</symbol>
<symbol id="icon-right" viewBox="0 0 53 32">
<path d="M38.208 1.042l-2.514 2.514 10.667 10.667h-46.361v3.556h46.361l-10.667 10.667 2.514 2.514 14.958-14.958-14.958-14.958z"></path>
</symbol>
</defs>
</svg>