<svg aria-hidden="true" style="position: absolute; width: 0; height: 0; overflow: hidden;" version="1.1" xmlns="http://www.w3.org/2000/svg" xmlns:xlink="http://www.w3.org/1999/xlink">
<defs>
<symbol id="icon-cil_arrow" viewBox="0 0 32 32">
<path d="M22.492 7.587l-1.413 1.413 6 6h-26.079v2h26.077l-6 6 1.415 1.413 8.413-8.413-8.413-8.413z"></path>
</symbol>
<symbol id="icon-222" viewBox="0 0 32 32">
<path stroke-linejoin="round" stroke-linecap="round" stroke-miterlimit="4" stroke-width="2" d="M27.428 3.428l-24 24"></path>
<path stroke-linejoin="round" stroke-linecap="round" stroke-miterlimit="4" stroke-width="2" d="M3.428 3.428l24 24"></path>
</symbol>
<symbol id="icon-ep_arrow" viewBox="0 0 32 32">
<path d="M3.272 10.587c0.362-0.361 0.861-0.585 1.413-0.585s1.051 0.223 1.413 0.585l9.901 9.9 9.9-9.9c0.356-0.333 0.836-0.537 1.363-0.537 1.105 0 2 0.895 2 2 0 0.527-0.204 1.007-0.538 1.365l0.001-0.001-11.313 11.315c-0.362 0.361-0.861 0.585-1.413 0.585s-1.052-0.224-1.413-0.585l-11.315-11.313c-0.362-0.362-0.586-0.862-0.586-1.414s0.224-1.052 0.586-1.414v0z"></path>
</symbol>
<symbol id="icon-fluent_phone-24-regular" viewBox="0 0 32 32">
<path d="M21 2.667c0.796 0 1.559 0.316 2.121 0.879s0.879 1.326 0.879 2.121v20.667c0 0.796-0.316 1.559-0.879 2.121s-1.326 0.879-2.121 0.879h-10c-0.796 0-1.559-0.316-2.121-0.879s-0.879-1.326-0.879-2.121v-20.667c0-0.796 0.316-1.559 0.879-2.121s1.326-0.879 2.121-0.879h10zM21 4.667h-10c-0.265 0-0.52 0.105-0.707 0.293s-0.293 0.442-0.293 0.707v20.667c0 0.552 0.448 1 1 1h10c0.265 0 0.52-0.105 0.707-0.293s0.293-0.442 0.293-0.707v-20.667c0-0.265-0.105-0.52-0.293-0.707s-0.442-0.293-0.707-0.293v0zM17.665 23.333c0.265-0 0.52 0.105 0.707 0.292s0.293 0.441 0.294 0.707-0.105 0.52-0.292 0.707c-0.187 0.188-0.441 0.293-0.707 0.294l-3.333 0.005c-0.265 0-0.52-0.105-0.707-0.292s-0.293-0.441-0.294-0.707c-0-0.265 0.105-0.52 0.292-0.707s0.441-0.293 0.707-0.294l3.333-0.005z"></path>
</symbol>
<symbol id="icon-akar-icons_instagram-fill" viewBox="0 0 32 32">
<path d="M9.953 1.421c1.564-0.072 2.063-0.088 6.047-0.088s4.483 0.017 6.045 0.088c1.563 0.071 2.629 0.32 3.563 0.681 0.977 0.369 1.864 0.947 2.597 1.693 0.747 0.732 1.323 1.617 1.691 2.596 0.363 0.933 0.611 2 0.683 3.56 0.072 1.567 0.088 2.065 0.088 6.048 0 3.984-0.017 4.483-0.088 6.047-0.071 1.56-0.32 2.627-0.683 3.56-0.368 0.979-0.945 1.866-1.691 2.599-0.733 0.747-1.62 1.323-2.597 1.691-0.933 0.363-2 0.611-3.56 0.683-1.565 0.072-2.064 0.088-6.048 0.088s-4.483-0.017-6.047-0.088c-1.56-0.071-2.627-0.32-3.56-0.683-0.979-0.368-1.866-0.945-2.599-1.691-0.746-0.732-1.324-1.619-1.692-2.597-0.361-0.933-0.609-2-0.681-3.56-0.072-1.567-0.088-2.065-0.088-6.048 0-3.984 0.017-4.483 0.088-6.045s0.32-2.629 0.681-3.563c0.369-0.979 0.947-1.865 1.693-2.597 0.732-0.746 1.618-1.323 2.596-1.692 0.933-0.361 2-0.609 3.56-0.681h0.001zM21.927 4.061c-1.547-0.071-2.011-0.085-5.927-0.085s-4.38 0.015-5.927 0.085c-1.431 0.065-2.207 0.304-2.724 0.505-0.684 0.267-1.173 0.583-1.687 1.096-0.487 0.473-0.861 1.050-1.096 1.687-0.201 0.517-0.44 1.293-0.505 2.724-0.071 1.547-0.085 2.011-0.085 5.927s0.015 4.38 0.085 5.927c0.065 1.431 0.304 2.207 0.505 2.724 0.235 0.636 0.609 1.213 1.096 1.687 0.473 0.487 1.051 0.861 1.687 1.096 0.517 0.201 1.293 0.44 2.724 0.505 1.547 0.071 2.009 0.085 5.927 0.085s4.38-0.015 5.927-0.085c1.431-0.065 2.207-0.304 2.724-0.505 0.684-0.267 1.173-0.583 1.687-1.096 0.487-0.473 0.861-1.051 1.096-1.687 0.201-0.517 0.44-1.293 0.505-2.724 0.071-1.547 0.085-2.011 0.085-5.927s-0.015-4.38-0.085-5.927c-0.065-1.431-0.304-2.207-0.505-2.724-0.267-0.684-0.583-1.173-1.096-1.687-0.473-0.487-1.050-0.861-1.687-1.096-0.517-0.201-1.293-0.44-2.724-0.505v0zM14.127 20.521c1.046 0.435 2.211 0.494 3.296 0.166s2.022-1.022 2.652-1.965c0.63-0.942 0.913-2.074 0.801-3.201s-0.612-2.181-1.415-2.981c-0.512-0.511-1.13-0.903-1.812-1.146s-1.408-0.333-2.128-0.262-1.415 0.301-2.036 0.673c-0.62 0.372-1.151 0.877-1.553 1.478s-0.665 1.285-0.772 2c-0.106 0.715-0.053 1.446 0.157 2.138s0.571 1.329 1.056 1.866c0.486 0.536 1.084 0.958 1.752 1.235zM10.669 10.669c0.7-0.7 1.531-1.255 2.446-1.634s1.895-0.574 2.885-0.574c0.99 0 1.97 0.195 2.885 0.574s1.746 0.934 2.446 1.634c0.7 0.7 1.255 1.531 1.634 2.446s0.574 1.895 0.574 2.885-0.195 1.97-0.574 2.885c-0.379 0.915-0.934 1.746-1.634 2.446-1.414 1.414-3.331 2.208-5.331 2.208s-3.917-0.794-5.331-2.208c-1.414-1.414-2.208-3.331-2.208-5.331s0.794-3.917 2.208-5.331v0zM25.211 9.584c0.173-0.164 0.312-0.36 0.408-0.579s0.147-0.454 0.151-0.692c0.003-0.238-0.041-0.475-0.131-0.696s-0.223-0.422-0.391-0.59c-0.169-0.169-0.369-0.302-0.59-0.391s-0.458-0.134-0.696-0.131c-0.239 0.003-0.474 0.055-0.692 0.151s-0.415 0.235-0.579 0.408c-0.318 0.337-0.493 0.785-0.486 1.249s0.194 0.907 0.522 1.235c0.328 0.328 0.771 0.515 1.235 0.522s0.912-0.167 1.249-0.486v0z"></path>
</symbol>
<symbol id="icon-jam_facebook-square" viewBox="0 0 32 32">
<path d="M14.26 11.916v1.836h-1.344v2.244h1.344v6.671h2.763v-6.671h1.853c0 0 0.175-1.076 0.259-2.253h-2.101v-1.533c0-0.231 0.301-0.539 0.6-0.539h1.504v-2.337h-2.047c-2.899 0-2.831 2.247-2.831 2.583z"></path>
<path d="M8 5.333c-0.707 0-1.386 0.281-1.886 0.781s-0.781 1.178-0.781 1.886v16c0 0.707 0.281 1.385 0.781 1.886s1.178 0.781 1.886 0.781h16c0.707 0 1.385-0.281 1.886-0.781s0.781-1.178 0.781-1.886v-16c0-0.707-0.281-1.386-0.781-1.886s-1.178-0.781-1.886-0.781h-16zM8 2.667h16c1.415 0 2.771 0.562 3.771 1.562s1.562 2.357 1.562 3.771v16c0 1.415-0.562 2.771-1.562 3.771s-2.357 1.562-3.771 1.562h-16c-1.415 0-2.771-0.562-3.771-1.562s-1.562-2.357-1.562-3.771v-16c0-1.415 0.562-2.771 1.562-3.771s2.357-1.562 3.771-1.562v0z"></path>
</symbol>
<symbol id="icon-la_telegram-plane" viewBox="0 0 32 32">
<path d="M26.070 3.996c-0.321 0.023-0.636 0.099-0.933 0.223h-0.004c-0.285 0.113-1.64 0.683-3.7 1.547l-7.382 3.109c-5.297 2.23-10.504 4.426-10.504 4.426l0.062-0.024c0 0-0.359 0.118-0.734 0.375-0.232 0.147-0.431 0.34-0.586 0.567-0.184 0.27-0.332 0.683-0.277 1.11 0.090 0.722 0.558 1.155 0.894 1.394 0.34 0.242 0.664 0.355 0.664 0.355h0.008l4.883 1.645c0.219 0.703 1.488 4.875 1.793 5.836 0.18 0.574 0.355 0.933 0.574 1.207 0.106 0.14 0.23 0.257 0.379 0.351 0.077 0.045 0.16 0.081 0.246 0.106l-0.050-0.012c0.015 0.004 0.027 0.016 0.038 0.020 0.040 0.011 0.067 0.015 0.118 0.023 0.773 0.234 1.394-0.246 1.394-0.246l0.035-0.028 2.883-2.625 4.832 3.707 0.11 0.047c1.007 0.442 2.027 0.196 2.566-0.238 0.543-0.437 0.754-0.996 0.754-0.996l0.035-0.090 3.734-19.129c0.106-0.472 0.133-0.914 0.016-1.343-0.121-0.434-0.399-0.808-0.781-1.047-0.321-0.195-0.692-0.289-1.067-0.27zM25.969 6.046c-0.004 0.063 0.008 0.056-0.020 0.177v0.011l-3.699 18.93c-0.016 0.027-0.043 0.086-0.117 0.145-0.078 0.062-0.14 0.101-0.465-0.028l-5.91-4.531-3.57 3.254 0.75-4.79 9.656-9c0.398-0.37 0.265-0.448 0.265-0.448 0.028-0.454-0.601-0.133-0.601-0.133l-12.176 7.543-0.004-0.020-5.851-1.972c0.010-0.003 0.020-0.007 0.030-0.012l0.032-0.016 0.031-0.011c0 0 5.211-2.196 10.508-4.426 2.652-1.117 5.324-2.242 7.379-3.11 1.219-0.513 2.439-1.023 3.66-1.53 0.082-0.032 0.043-0.032 0.102-0.032v-0.001z"></path>
<symbol id="icon-arrow-left" viewBox="0 0 32 32">
<path d="M31.083 15h-26.078l6-6-1.414-1.414-8.414 8.414 8.414 8.414 1.414-1.414-6-6h26.078v-2z"></path>
</symbol>
<symbol id="icon-arrow-right" viewBox="0 0 32 32">
<path d="M22.492 7.586l-1.414 1.414 6 6h-26.078v2h26.078l-6 6 1.414 1.414 8.414-8.414-8.414-8.414z"></path>
<symbol id="icon-left" viewBox="0 0 55 32">
<path d="M53.481 14.222h-46.359l10.667-10.667-2.517-2.514-14.956 14.958 14.958 14.958 2.516-2.514-10.667-10.667h46.359v-3.556z"></path>
</symbol>
<symbol id="icon-right" viewBox="0 0 53 32">
<path d="M38.208 1.042l-2.514 2.514 10.667 10.667h-46.361v3.556h46.361l-10.667 10.667 2.514 2.514 14.958-14.958-14.958-14.958z"></path>
</symbol>
<symbol id="icon-telegram" viewBox="0 0 34 32"> 
<path d="M31.245 1.679c-0.432 0.032-0.833 0.132-1.203 0.291l0.024-0.009h-0.003c-0.36 0.143-2.072 0.862-4.674 1.954l-9.325 3.928c-6.691 2.819-13.268 5.592-13.268 5.592l0.079-0.030s-0.455 0.148-0.926 0.472c-0.295 0.187-0.546 0.431-0.741 0.717-0.227 0.33-0.362 0.739-0.362 1.179 0 0.079 0.004 0.157 0.013 0.234l-0.001-0.009c0.113 0.911 0.704 1.459 1.128 1.76 0.431 0.307 0.839 0.448 0.839 0.448h0.010l6.169 2.078c0.276 0.888 1.88 6.157 2.265 7.372 0.227 0.724 0.448 1.179 0.724 1.524 0.135 0.177 0.29 0.325 0.478 0.445 0.098 0.057 0.202 0.101 0.312 0.135l-0.064-0.017c0.020 0.005 0.034 0.020 0.049 0.025 0.051 0.013 0.084 0.019 0.148 0.029 0.977 0.296 1.762-0.31 1.762-0.31l0.044-0.035 3.641-3.316 6.104 4.682 0.14 0.061c1.272 0.557 2.56 0.248 3.24-0.301 0.687-0.552 0.953-1.258 0.953-1.258l0.044-0.113 4.716-24.163c0.135-0.596 0.168-1.155 0.022-1.696-0.153-0.549-0.505-1.021-0.987-1.324-0.35-0.216-0.773-0.343-1.227-0.343-0.042 0-0.084 0.001-0.126 0.003l0.006-0zM31.119 4.268c-0.005 0.081 0.010 0.071-0.025 0.224v0.013l-4.672 23.912c-0.022 0.034-0.056 0.108-0.148 0.184-0.099 0.077-0.177 0.126-0.588-0.035l-7.464-5.725-4.51 4.109 0.948-6.050 12.195-11.368c0.504-0.467 0.337-0.566 0.337-0.566 0.034-0.573-0.76-0.168-0.76-0.168l-15.384 9.531-0.003-0.025-7.39-2.493c0.015-0.006 0.027-0.011 0.039-0.018l-0.002 0.001 0.040-0.019 0.039-0.013 13.273-5.592c3.35-1.411 6.725-2.831 9.32-3.928 1.539-0.648 3.082-1.293 4.623-1.933 0.104-0.040 0.056-0.040 0.13-0.040z"></path> 
</symbol> 
<symbol id="icon-facebook" viewBox="0 0 32 32"> 
<path d="M13.912 11.099v2.203h-1.613v2.693h1.613v8.005h3.315v-8.005h2.224s0.21-1.291 0.31-2.704h-2.522v-1.84c0-0.277 0.362-0.646 0.72-0.646h1.805v-2.805h-2.456c-3.478 0-3.397 2.696-3.397 3.099z"></path> 
<path d="M6.4 3.2c-1.767 0-3.2 1.433-3.2 3.2v0 19.2c0 1.767 1.433 3.2 3.2 3.2v0h19.2c1.767 0 3.2-1.433 3.2-3.2v0-19.2c0-1.767-1.433-3.2-3.2-3.2v0h-19.2zM6.4 0h19.2c3.535 0 6.4 2.865 6.4 6.4v0 19.2c0 3.535-2.865 6.4-6.4 6.4v0h-19.2c-3.535 0-6.4-2.865-6.4-6.4v0-19.2c0-3.535 2.865-6.4 6.4-6.4v0z"></path> 
</symbol> 

<symbol id="icon-Instagram" viewBox="0 0 32 32">
<path d="M9.404 0.096c1.706-0.079 2.25-0.096 6.596-0.096s4.89 0.019 6.595 0.096c1.705 0.077 2.868 0.349 3.887 0.743 1.066 0.403 2.033 1.033 2.833 1.847 0.815 0.799 1.443 1.764 1.844 2.832 0.396 1.018 0.666 2.182 0.745 3.884 0.079 1.709 0.096 2.253 0.096 6.598 0 4.346-0.019 4.89-0.096 6.596-0.077 1.702-0.349 2.865-0.745 3.884-0.424 1.109-1.051 2.055-1.843 2.834l-0.001 0.001c-0.8 0.815-1.767 1.443-2.833 1.844-1.018 0.396-2.182 0.666-3.884 0.745-1.708 0.079-2.252 0.096-6.598 0.096s-4.89-0.019-6.596-0.096c-1.702-0.077-2.865-0.349-3.884-0.745-1.109-0.424-2.055-1.051-2.834-1.843l-0.001-0.001c-0.794-0.779-1.421-1.725-1.828-2.78l-0.018-0.054c-0.394-1.018-0.665-2.182-0.743-3.884-0.079-1.709-0.096-2.253-0.096-6.598 0-4.346 0.019-4.89 0.096-6.595s0.349-2.868 0.743-3.887c0.425-1.109 1.053-2.054 1.846-2.832l0.001-0.001c0.779-0.793 1.724-1.421 2.778-1.828l0.054-0.018c1.018-0.394 2.182-0.665 3.884-0.743h0.001zM22.465 2.976c-1.687-0.077-2.193-0.093-6.465-0.093s-4.778 0.016-6.465 0.093c-1.561 0.071-2.407 0.332-2.972 0.551-0.746 0.291-1.28 0.636-1.84 1.196-0.518 0.504-0.925 1.119-1.184 1.806l-0.011 0.034c-0.22 0.564-0.48 1.411-0.551 2.972-0.077 1.687-0.093 2.193-0.093 6.465s0.016 4.778 0.093 6.465c0.071 1.561 0.332 2.407 0.551 2.972 0.256 0.694 0.665 1.324 1.196 1.84 0.516 0.531 1.146 0.94 1.84 1.196 0.564 0.22 1.411 0.48 2.972 0.551 1.687 0.077 2.192 0.093 6.465 0.093s4.778-0.016 6.465-0.093c1.561-0.071 2.407-0.332 2.972-0.551 0.746-0.291 1.28-0.636 1.84-1.196 0.531-0.516 0.94-1.146 1.196-1.84 0.22-0.564 0.48-1.411 0.551-2.972 0.077-1.687 0.093-2.193 0.093-6.465s-0.016-4.778-0.093-6.465c-0.071-1.561-0.332-2.407-0.551-2.972-0.291-0.746-0.636-1.28-1.196-1.84-0.504-0.518-1.119-0.925-1.806-1.184l-0.034-0.011c-0.564-0.22-1.411-0.48-2.972-0.551zM13.956 20.932c0.604 0.257 1.306 0.407 2.044 0.407 2.948 0 5.338-2.39 5.338-5.338 0-2.304-1.459-4.266-3.504-5.015l-0.037-0.012c-0.535-0.197-1.153-0.312-1.797-0.312-2.948 0-5.338 2.39-5.338 5.338 0 2.211 1.344 4.108 3.259 4.918l0.035 0.013zM10.185 10.185c1.488-1.488 3.544-2.409 5.815-2.409 4.542 0 8.224 3.682 8.224 8.224 0 2.271-0.921 4.327-2.409 5.815v0c-1.488 1.488-3.544 2.409-5.815 2.409-4.542 0-8.224-3.682-8.224-8.224 0-2.271 0.921-4.327 2.409-5.815v0zM26.048 9.001c0.376-0.355 0.61-0.857 0.61-1.414 0-1.073-0.87-1.944-1.944-1.944-0.517 0-0.987 0.202-1.335 0.531l0.001-0.001c-0.376 0.355-0.61 0.857-0.61 1.414 0 1.073 0.87 1.944 1.944 1.944 0.517 0 0.987-0.202 1.335-0.531l-0.001 0.001z"></path>
=======
<symbol id="icon-Instagram" viewBox="0 0 32 32"> 
<path d="M9.404 0.096c1.706-0.079 2.25-0.096 6.596-0.096s4.89 0.019 6.595 0.096c1.705 0.077 2.868 0.349 3.887 0.743 1.066 0.403 2.033 1.033 2.833 1.847 0.815 0.799 1.443 1.764 1.844 2.832 0.396 1.018 0.666 2.182 0.745 3.884 0.079 1.709 0.096 2.253 0.096 6.598 0 4.346-0.019 4.89-0.096 6.596-0.077 1.702-0.349 2.865-0.745 3.884-0.424 1.109-1.051 2.055-1.843 2.834l-0.001 0.001c-0.8 0.815-1.767 1.443-2.833 1.844-1.018 0.396-2.182 0.666-3.884 0.745-1.708 0.079-2.252 0.096-6.598 0.096s-4.89-0.019-6.596-0.096c-1.702-0.077-2.865-0.349-3.884-0.745-1.109-0.424-2.055-1.051-2.834-1.843l-0.001-0.001c-0.794-0.779-1.421-1.725-1.828-2.78l-0.018-0.054c-0.394-1.018-0.665-2.182-0.743-3.884-0.079-1.709-0.096-2.253-0.096-6.598 0-4.346 0.019-4.89 0.096-6.595s0.349-2.868 0.743-3.887c0.425-1.109 1.053-2.054 1.846-2.832l0.001-0.001c0.779-0.793 1.724-1.421 2.778-1.828l0.054-0.018c1.018-0.394 2.182-0.665 3.884-0.743h0.001zM22.465 2.976c-1.687-0.077-2.193-0.093-6.465-0.093s-4.778 0.016-6.465 0.093c-1.561 0.071-2.407 0.332-2.972 0.551-0.746 0.291-1.28 0.636-1.84 1.196-0.518 0.504-0.925 1.119-1.184 1.806l-0.011 0.034c-0.22 0.564-0.48 1.411-0.551 2.972-0.077 1.687-0.093 2.193-0.093 6.465s0.016 4.778 0.093 6.465c0.071 1.561 0.332 2.407 0.551 2.972 0.256 0.694 0.665 1.324 1.196 1.84 0.516 0.531 1.146 0.94 1.84 1.196 0.564 0.22 1.411 0.48 2.972 0.551 1.687 0.077 2.192 0.093 6.465 0.093s4.778-0.016 6.465-0.093c1.561-0.071 2.407-0.332 2.972-0.551 0.746-0.291 1.28-0.636 1.84-1.196 0.531-0.516 0.94-1.146 1.196-1.84 0.22-0.564 0.48-1.411 0.551-2.972 0.077-1.687 0.093-2.193 0.093-6.465s-0.016-4.778-0.093-6.465c-0.071-1.561-0.332-2.407-0.551-2.972-0.291-0.746-0.636-1.28-1.196-1.84-0.504-0.518-1.119-0.925-1.806-1.184l-0.034-0.011c-0.564-0.22-1.411-0.48-2.972-0.551zM13.956 20.932c0.604 0.257 1.306 0.407 2.044 0.407 2.948 0 5.338-2.39 5.338-5.338 0-2.304-1.459-4.266-3.504-5.015l-0.037-0.012c-0.535-0.197-1.153-0.312-1.797-0.312-2.948 0-5.338 2.39-5.338 5.338 0 2.211
1.344 4.108 3.259 4.918l0.035 0.013zM10.185 10.185c1.488-1.488 3.544-2.409 5.815-2.409 4.542 0 8.224 3.682 8.224 8.224 0 2.271-0.921 4.327-2.409 5.815v0c-1.488 1.488-3.544 2.409-5.815 2.409-4.542 0-8.224-3.682-8.224-8.224 0-2.271 0.921-4.327 2.409-5.815v0zM26.048 9.001c0.376-0.355 0.61-0.857 0.61-1.414 0-1.073-0.87-1.944-1.944-1.944-0.517 0-0.987 0.202-1.335 0.531l0.001-0.001c-0.376 0.355-0.61 0.857-0.61 1.414 0 1.073 0.87 1.944 1.944 1.944 0.517 0 0.987-0.202 1.335-0.531l-0.001 0.001z"></path> 


</symbol>
</defs>
</svg>
